<?xml version="1.0" encoding="UTF-8"?>
<svg id="_Слой_2" data-name="Слой 2" xmlns="http://www.w3.org/2000/svg" viewBox="0 0 1268.67 170.25">
  <defs>
    <style>
      .cls-1 {
        fill: #fff;
      }
    </style>
  </defs>
  <g id="_Слой_1-2" data-name="Слой 1">
    <g>
      <path class="cls-1" d="M154.35,169.92L207.54,28.47h120.39l16.47,22.36-10.1,22.36-16.51,11.18,7.57,11.18-18.26,46.1h-36.12l13.79-34.92-7.57-11.18h-60.2l-16.79,46.23M298.18,73.19l8.77-22.36h-72.24l-8.77,22.36h72.24Z"/>
      <path class="cls-1" d="M357.44,28.37h132.43l-35.75,24.13h-72.24l-8.77,22.36h72.24l-8.94,22.36h-72.24l-8.77,22.36h72.06l15.31,22.36h-132.43l47.1-113.57Z"/>
      <path class="cls-1" d="M444.82,141.75l49.69-113.39h92.05l38.17,23.95-26.66,67.08-32.85,22.36h-120.39ZM562.11,119.39l26.49-67.08h-72.24l-26.49,67.08h72.24Z"/>
      <path class="cls-1" d="M631.42,50.73l33.02-22.36h96.32l15.13,22.53-36.06,90.86h-36.11l13.87-35.13h-72.24l-13.87,35.13-47.35,28.35,47.29-119.37ZM726.53,84.26l13.24-33.54h-72.24l-13.24,33.54h72.24Z"/>
      <path class="cls-1" d="M702.48.02h278.76l-33.02,22.36h-120.5l-47.05,117.78-47.98,29.94,58.73-147.72h-121.97L702.48.02Z"/>
      <path class="cls-1" d="M792.79,119.58l26.66-67.25,33.07-23.97h96.31l14.92,24.14-26.66,67.08-32.85,22.36h-96.32l-15.13-22.36ZM901.14,119.58l26.49-67.08h-72.23l-26.49,67.08h72.24Z"/>
      <path class="cls-1" d="M977.07,28.37h120.39l14.87,23.93-8.77,22.36-16.51,11.18,7.57,11.18-17.71,44.72h-36.12l13.24-33.54-7.57-11.18h-60.2l-17.71,44.72-47.35,28.31,55.87-141.68ZM1067.45,74.66l8.77-22.36h-72.24l-8.77,22.36h72.24Z"/>
      <path class="cls-1" d="M1148.28,28.37h120.39l-33.02,23.95h-84.1l-8.94,22.36h84.27l15.14,22.36-20.17,50.86-33.02,22.36-260.66-.21,35.59-22.36,221.98.21,20.17-50.86h-84.28l-15.13-22.36,8.77-22.36,33.02-23.95Z"/>
    </g>
    <path class="cls-1" d="M162.85,68.06h-85.51l-29.38,73.69L0,170.24,67.73,0h111.9l25.62,22.69-9.07,22.69-33.33,22.69ZM159.71,45.38l8.9-22.69h-73.3l-8.9,22.69h73.3Z"/>
  </g>
</svg>