<?xml version="1.0" encoding="UTF-8"?>
<svg id="_Слой_2" data-name="Слой 2" xmlns="http://www.w3.org/2000/svg" xmlns:xlink="http://www.w3.org/1999/xlink" viewBox="0 0 1268.67 170.25">
  <defs>
    <style>
      .cls-1 {
        fill: url(#_Безымянный_градиент_3152-3);
      }

      .cls-2 {
        fill: url(#_Безымянный_градиент_4011);
      }

      .cls-3 {
        fill: url(#_Безымянный_градиент_4011-2);
      }

      .cls-4 {
        fill: url(#_Безымянный_градиент_4011-7);
      }

      .cls-5 {
        fill: url(#_Безымянный_градиент_3152-2);
      }

      .cls-6 {
        fill: url(#_Безымянный_градиент_4011-5);
      }

      .cls-7 {
        fill: url(#_Безымянный_градиент_3152-9);
      }

      .cls-8 {
        fill: url(#_Безымянный_градиент_3152-6);
      }

      .cls-9 {
        fill: url(#_Безымянный_градиент_3152-4);
      }

      .cls-10 {
        fill: url(#_Безымянный_градиент_4011-4);
      }

      .cls-11 {
        fill: url(#_Безымянный_градиент_3152-8);
      }

      .cls-12 {
        fill: url(#_Безымянный_градиент_4011-9);
      }

      .cls-13 {
        fill: url(#_Безымянный_градиент_3152);
      }

      .cls-14 {
        fill: url(#_Безымянный_градиент_4011-8);
      }

      .cls-15 {
        fill: url(#_Безымянный_градиент_4011-3);
      }

      .cls-16 {
        fill: url(#_Безымянный_градиент_3152-5);
      }

      .cls-17 {
        fill: url(#_Безымянный_градиент_3152-7);
      }

      .cls-18 {
        fill: url(#_Безымянный_градиент_4011-6);
      }
    </style>
    <linearGradient id="_Безымянный_градиент_3152" data-name="Безымянный градиент 3152" x1="249.37" y1="169.92" x2="249.37" y2="28.47" gradientUnits="userSpaceOnUse">
      <stop offset="0" stop-color="#1e1d2c"/>
      <stop offset=".51" stop-color="#0e0d14"/>
      <stop offset="1" stop-color="#000"/>
    </linearGradient>
    <linearGradient id="_Безымянный_градиент_4011" data-name="Безымянный градиент 4011" x1="249.37" y1="169.92" x2="249.37" y2="28.47" gradientUnits="userSpaceOnUse">
      <stop offset=".16" stop-color="#0027df"/>
      <stop offset=".18" stop-color="#0042df"/>
      <stop offset=".2" stop-color="#005bdf"/>
      <stop offset=".23" stop-color="#006ddf"/>
      <stop offset=".26" stop-color="#007bdf"/>
      <stop offset=".3" stop-color="#0082df"/>
      <stop offset=".37" stop-color="#0085df"/>
      <stop offset="1" stop-color="#da00ff"/>
    </linearGradient>
    <linearGradient id="_Безымянный_градиент_3152-2" data-name="Безымянный градиент 3152" x1="400.11" y1="141.93" x2="400.11" y2="28.37" xlink:href="#_Безымянный_градиент_3152"/>
    <linearGradient id="_Безымянный_градиент_4011-2" data-name="Безымянный градиент 4011" x1="400.11" y1="141.93" x2="400.11" y2="28.37" xlink:href="#_Безымянный_градиент_4011"/>
    <linearGradient id="_Безымянный_градиент_3152-3" data-name="Безымянный градиент 3152" x1="534.77" y1="141.75" x2="534.77" y2="28.37" xlink:href="#_Безымянный_градиент_3152"/>
    <linearGradient id="_Безымянный_градиент_4011-3" data-name="Безымянный градиент 4011" x1="534.77" y1="141.75" x2="534.77" y2="28.37" xlink:href="#_Безымянный_градиент_4011"/>
    <linearGradient id="_Безымянный_градиент_3152-4" data-name="Безымянный градиент 3152" x1="680.01" y1="170.1" x2="680.01" y2="28.37" xlink:href="#_Безымянный_градиент_3152"/>
    <linearGradient id="_Безымянный_градиент_4011-4" data-name="Безымянный градиент 4011" x1="680.01" y1="170.1" x2="680.01" y2="28.37" xlink:href="#_Безымянный_градиент_4011"/>
    <linearGradient id="_Безымянный_градиент_3152-5" data-name="Безымянный градиент 3152" x1="825.35" y1="170.1" x2="825.35" y2=".02" xlink:href="#_Безымянный_градиент_3152"/>
    <linearGradient id="_Безымянный_градиент_4011-5" data-name="Безымянный градиент 4011" x1="825.35" y1="170.1" x2="825.35" y2=".02" xlink:href="#_Безымянный_градиент_4011"/>
    <linearGradient id="_Безымянный_градиент_3152-6" data-name="Безымянный градиент 3152" x1="878.27" y1="141.94" x2="878.27" y2="28.37" xlink:href="#_Безымянный_градиент_3152"/>
    <linearGradient id="_Безымянный_градиент_4011-6" data-name="Безымянный градиент 4011" x1="878.27" y1="141.94" x2="878.27" y2="28.37" xlink:href="#_Безымянный_градиент_4011"/>
    <linearGradient id="_Безымянный_градиент_3152-7" data-name="Безымянный градиент 3152" x1="1016.77" y1="170.04" x2="1016.77" y2="28.37" xlink:href="#_Безымянный_градиент_3152"/>
    <linearGradient id="_Безымянный_градиент_4011-7" data-name="Безымянный градиент 4011" x1="1016.77" y1="170.04" x2="1016.77" y2="28.37" xlink:href="#_Безымянный_градиент_4011"/>
    <linearGradient id="_Безымянный_градиент_3152-8" data-name="Безымянный градиент 3152" x1="1098.41" y1="170.25" x2="1098.41" y2="28.37" xlink:href="#_Безымянный_градиент_3152"/>
    <linearGradient id="_Безымянный_градиент_4011-8" data-name="Безымянный градиент 4011" x1="1098.41" y1="170.25" x2="1098.41" y2="28.37" xlink:href="#_Безымянный_градиент_4011"/>
    <linearGradient id="_Безымянный_градиент_3152-9" data-name="Безымянный градиент 3152" x1="102.63" y1="170.24" x2="102.63" y2="0" xlink:href="#_Безымянный_градиент_3152"/>
    <linearGradient id="_Безымянный_градиент_4011-9" data-name="Безымянный градиент 4011" x1="102.63" y1="170.24" x2="102.63" y2="0" xlink:href="#_Безымянный_градиент_4011"/>
  </defs>
  <g id="_Слой_1-2" data-name="Слой 1">
    <g>
      <g>
        <path class="cls-13" d="M154.35,169.92L207.54,28.47h120.39l16.47,22.36-10.1,22.36-16.51,11.18,7.57,11.18-18.26,46.1h-36.12l13.79-34.92-7.57-11.18h-60.2l-16.79,46.23M298.18,73.19l8.77-22.36h-72.24l-8.77,22.36h72.24Z"/>
        <path class="cls-2" d="M154.35,169.92L207.54,28.47h120.39l16.47,22.36-10.1,22.36-16.51,11.18,7.57,11.18-18.26,46.1h-36.12l13.79-34.92-7.57-11.18h-60.2l-16.79,46.23M298.18,73.19l8.77-22.36h-72.24l-8.77,22.36h72.24Z"/>
      </g>
      <g>
        <path class="cls-5" d="M357.44,28.37h132.43l-35.75,24.13h-72.24l-8.77,22.36h72.24l-8.94,22.36h-72.24l-8.77,22.36h72.06l15.31,22.36h-132.43l47.1-113.57Z"/>
        <path class="cls-3" d="M357.44,28.37h132.43l-35.75,24.13h-72.24l-8.77,22.36h72.24l-8.94,22.36h-72.24l-8.77,22.36h72.06l15.31,22.36h-132.43l47.1-113.57Z"/>
      </g>
      <g>
        <path class="cls-1" d="M444.82,141.75l49.69-113.39h92.05l38.17,23.95-26.66,67.08-32.85,22.36h-120.39ZM562.11,119.39l26.49-67.08h-72.24l-26.49,67.08h72.24Z"/>
        <path class="cls-15" d="M444.82,141.75l49.69-113.39h92.05l38.17,23.95-26.66,67.08-32.85,22.36h-120.39ZM562.11,119.39l26.49-67.08h-72.24l-26.49,67.08h72.24Z"/>
      </g>
      <g>
        <path class="cls-9" d="M631.42,50.73l33.02-22.36h96.32l15.13,22.53-36.06,90.86h-36.11l13.87-35.13h-72.24l-13.87,35.13-47.35,28.35,47.29-119.37ZM726.53,84.26l13.24-33.54h-72.24l-13.24,33.54h72.24Z"/>
        <path class="cls-10" d="M631.42,50.73l33.02-22.36h96.32l15.13,22.53-36.06,90.86h-36.11l13.87-35.13h-72.24l-13.87,35.13-47.35,28.35,47.29-119.37ZM726.53,84.26l13.24-33.54h-72.24l-13.24,33.54h72.24Z"/>
      </g>
      <g>
        <path class="cls-16" d="M702.48.02h278.76l-33.02,22.36h-120.5l-47.05,117.78-47.98,29.94,58.73-147.72h-121.97L702.48.02Z"/>
        <path class="cls-6" d="M702.48.02h278.76l-33.02,22.36h-120.5l-47.05,117.78-47.98,29.94,58.73-147.72h-121.97L702.48.02Z"/>
      </g>
      <g>
        <path class="cls-8" d="M792.79,119.58l26.66-67.25,33.07-23.97h96.31l14.92,24.14-26.66,67.08-32.85,22.36h-96.32l-15.13-22.36ZM901.14,119.58l26.49-67.08h-72.23l-26.49,67.08h72.24Z"/>
        <path class="cls-18" d="M792.79,119.58l26.66-67.25,33.07-23.97h96.31l14.92,24.14-26.66,67.08-32.85,22.36h-96.32l-15.13-22.36ZM901.14,119.58l26.49-67.08h-72.23l-26.49,67.08h72.24Z"/>
      </g>
      <g>
        <path class="cls-17" d="M977.07,28.37h120.39l14.87,23.93-8.77,22.36-16.51,11.18,7.57,11.18-17.71,44.72h-36.12l13.24-33.54-7.57-11.18h-60.2l-17.71,44.72-47.35,28.31,55.87-141.68ZM1067.45,74.66l8.77-22.36h-72.24l-8.77,22.36h72.24Z"/>
        <path class="cls-4" d="M977.07,28.37h120.39l14.87,23.93-8.77,22.36-16.51,11.18,7.57,11.18-17.71,44.72h-36.12l13.24-33.54-7.57-11.18h-60.2l-17.71,44.72-47.35,28.31,55.87-141.68ZM1067.45,74.66l8.77-22.36h-72.24l-8.77,22.36h72.24Z"/>
      </g>
      <g>
        <path class="cls-11" d="M1148.28,28.37h120.39l-33.02,23.95h-84.1l-8.94,22.36h84.27l15.14,22.36-20.17,50.86-33.02,22.36-260.66-.21,35.59-22.36,221.98.21,20.17-50.86h-84.28l-15.13-22.36,8.77-22.36,33.02-23.95Z"/>
        <path class="cls-14" d="M1148.28,28.37h120.39l-33.02,23.95h-84.1l-8.94,22.36h84.27l15.14,22.36-20.17,50.86-33.02,22.36-260.66-.21,35.59-22.36,221.98.21,20.17-50.86h-84.28l-15.13-22.36,8.77-22.36,33.02-23.95Z"/>
      </g>
      <g>
        <path class="cls-7" d="M162.85,68.06h-85.51l-29.38,73.69L0,170.24,67.73,0h111.9l25.62,22.69-9.07,22.69-33.33,22.69ZM159.71,45.38l8.9-22.69h-73.3l-8.9,22.69h73.3Z"/>
        <path class="cls-12" d="M162.85,68.06h-85.51l-29.38,73.69L0,170.24,67.73,0h111.9l25.62,22.69-9.07,22.69-33.33,22.69ZM159.71,45.38l8.9-22.69h-73.3l-8.9,22.69h73.3Z"/>
      </g>
    </g>
  </g>
</svg>